<svg width="40" height="40" viewBox="0 0 40 40" fill="none" xmlns="http://www.w3.org/2000/svg">
<g filter="url(#filter0_i_321_118)">
<path d="M35.8642 19.9776C35.8642 28.751 28.7509 35.8643 19.9774 35.8643C11.204 35.8643 4.09067 28.751 4.09067 19.9776C4.09067 11.2041 11.204 4.09082 19.9774 4.09082C28.7509 4.09082 35.8642 11.2041 35.8642 19.9776Z" fill="#2159D2"/>
</g>
<g filter="url(#filter1_i_321_118)">
<path d="M10.0903 19.7528C15.6427 17.3102 22.8275 14.3322 23.8196 13.92C26.4211 12.8413 27.2194 13.0478 26.8214 15.4371C26.5355 17.1545 25.711 22.8396 25.0532 26.3784C24.6632 28.477 23.7879 28.7256 22.4121 27.8177C21.7504 27.3808 18.4102 25.1718 17.685 24.6531C17.0233 24.1804 16.1106 23.6117 17.2552 22.4917C17.6627 22.0929 20.3325 19.5431 22.4129 17.5588C22.6853 17.2983 22.343 16.8701 22.0284 17.079C19.2244 18.9386 15.3369 21.5194 14.842 21.8554C14.0946 22.363 13.3765 22.5957 12.0881 22.2256C11.1142 21.9459 10.1634 21.6123 9.79323 21.4852C8.3674 20.9959 8.70578 20.362 10.0903 19.7528Z" fill="#EBE9E9"/>
</g>
<defs>
<filter id="filter0_i_321_118" x="4.09067" y="4.09082" width="31.7735" height="35.7734" filterUnits="userSpaceOnUse" color-interpolation-filters="sRGB">
<feFlood flood-opacity="0" result="BackgroundImageFix"/>
<feBlend mode="normal" in="SourceGraphic" in2="BackgroundImageFix" result="shape"/>
<feColorMatrix in="SourceAlpha" type="matrix" values="0 0 0 0 0 0 0 0 0 0 0 0 0 0 0 0 0 0 127 0" result="hardAlpha"/>
<feOffset dy="4"/>
<feGaussianBlur stdDeviation="7.5"/>
<feComposite in2="hardAlpha" operator="arithmetic" k2="-1" k3="1"/>
<feColorMatrix type="matrix" values="0 0 0 0 0 0 0 0 0 0 0 0 0 0 0 0 0 0 0.2 0"/>
<feBlend mode="normal" in2="shape" result="effect1_innerShadow_321_118"/>
</filter>
<filter id="filter1_i_321_118" x="8.87454" y="13.2959" width="18.0436" height="19.0205" filterUnits="userSpaceOnUse" color-interpolation-filters="sRGB">
<feFlood flood-opacity="0" result="BackgroundImageFix"/>
<feBlend mode="normal" in="SourceGraphic" in2="BackgroundImageFix" result="shape"/>
<feColorMatrix in="SourceAlpha" type="matrix" values="0 0 0 0 0 0 0 0 0 0 0 0 0 0 0 0 0 0 127 0" result="hardAlpha"/>
<feOffset dy="4"/>
<feGaussianBlur stdDeviation="4"/>
<feComposite in2="hardAlpha" operator="arithmetic" k2="-1" k3="1"/>
<feColorMatrix type="matrix" values="0 0 0 0 0 0 0 0 0 0 0 0 0 0 0 0 0 0 0.2 0"/>
<feBlend mode="normal" in2="shape" result="effect1_innerShadow_321_118"/>
</filter>
</defs>
</svg>
