<svg width="32" height="32" viewBox="0 0 32 32" fill="none" xmlns="http://www.w3.org/2000/svg">
<g filter="url(#filter0_i_321_262)">
<path fill-rule="evenodd" clip-rule="evenodd" d="M2.02121 4.38267C2.02121 3.75645 2.26998 3.15587 2.71279 2.71306C3.15559 2.27025 3.75617 2.02149 4.3824 2.02149H27.9197C28.2301 2.02098 28.5375 2.08169 28.8243 2.20014C29.1112 2.31859 29.3718 2.49245 29.5914 2.71178C29.8109 2.9311 29.9851 3.19158 30.1039 3.47829C30.2226 3.76501 30.2837 4.07233 30.2835 4.38267V27.92C30.2838 28.2304 30.223 28.5378 30.1044 28.8247C29.9858 29.1115 29.8118 29.3722 29.5924 29.5917C29.3729 29.8113 29.1124 29.9854 28.8256 30.1042C28.5388 30.2229 28.2314 30.2839 27.921 30.2838H4.3824C4.07221 30.2838 3.76507 30.2227 3.47851 30.1039C3.19196 29.9852 2.9316 29.8111 2.71233 29.5917C2.49306 29.3723 2.31916 29.1119 2.20058 28.8253C2.08199 28.5387 2.02104 28.2315 2.02121 27.9213V4.38267ZM13.2079 12.7971H17.0349V14.719C17.5873 13.6142 19.0004 12.6198 21.1239 12.6198C25.195 12.6198 26.1598 14.8204 26.1598 18.8581V26.3373H22.0399V19.7779C22.0399 17.4784 21.4875 16.1809 20.0847 16.1809C18.1384 16.1809 17.3291 17.5799 17.3291 19.7779V26.3373H13.2079V12.7971ZM6.14237 26.1613H10.2635V12.6198H6.14237V26.16V26.1613ZM10.8532 8.20322C10.8609 8.55608 10.7982 8.90693 10.6685 9.2352C10.5388 9.56346 10.3449 9.86252 10.0981 10.1148C9.85129 10.3671 9.55658 10.5676 9.23125 10.7044C8.90592 10.8413 8.55653 10.9118 8.20358 10.9118C7.85064 10.9118 7.50125 10.8413 7.17592 10.7044C6.85059 10.5676 6.55588 10.3671 6.30907 10.1148C6.06227 9.86252 5.86834 9.56346 5.73868 9.2352C5.60901 8.90693 5.54623 8.55608 5.554 8.20322C5.56925 7.51061 5.8551 6.8515 6.35033 6.36705C6.84556 5.88261 7.5108 5.61133 8.20358 5.61133C8.89637 5.61133 9.56161 5.88261 10.0568 6.36705C10.5521 6.8515 10.8379 7.51061 10.8532 8.20322V8.20322Z" fill="#2159D2"/>
</g>
<defs>
<filter id="filter0_i_321_262" x="0.736572" y="0.736816" width="30.8316" height="34.8315" filterUnits="userSpaceOnUse" color-interpolation-filters="sRGB">
<feFlood flood-opacity="0" result="BackgroundImageFix"/>
<feBlend mode="normal" in="SourceGraphic" in2="BackgroundImageFix" result="shape"/>
<feColorMatrix in="SourceAlpha" type="matrix" values="0 0 0 0 0 0 0 0 0 0 0 0 0 0 0 0 0 0 127 0" result="hardAlpha"/>
<feOffset dy="4"/>
<feGaussianBlur stdDeviation="7.5"/>
<feComposite in2="hardAlpha" operator="arithmetic" k2="-1" k3="1"/>
<feColorMatrix type="matrix" values="0 0 0 0 0 0 0 0 0 0 0 0 0 0 0 0 0 0 0.2 0"/>
<feBlend mode="normal" in2="shape" result="effect1_innerShadow_321_262"/>
</filter>
</defs>
</svg>
