<svg width="70" height="33" viewBox="0 0 70 33" fill="none" xmlns="http://www.w3.org/2000/svg">
<rect width="70" height="33" rx="4" fill="white"/>
<path d="M24.4043 15.3828L21.057 18.6115L22.0597 23.4185C22.1128 23.6698 22.0976 23.9328 22.0162 24.1747C21.9348 24.4165 21.7906 24.6265 21.6018 24.7782C21.413 24.93 21.1879 25.0169 20.9546 25.0281C20.7214 25.0392 20.4903 24.9742 20.2904 24.841L16.497 22.298L12.7119 24.841C12.5119 24.9742 12.2809 25.0392 12.0476 25.0281C11.8143 25.0169 11.5892 24.93 11.4004 24.7782C11.2116 24.6265 11.0675 24.4165 10.986 24.1747C10.9046 23.9328 10.8894 23.6698 10.9425 23.4185L11.9437 18.6164L8.59571 15.3828C8.41863 15.214 8.29058 14.9911 8.22762 14.7422C8.16467 14.4933 8.1696 14.2294 8.24181 13.9836C8.31402 13.7377 8.45029 13.5209 8.63353 13.3604C8.81677 13.1998 9.03882 13.1026 9.27184 13.081L13.6849 12.6585L15.4075 8.11725C15.4975 7.87896 15.6492 7.67542 15.8436 7.53225C16.038 7.38908 16.2664 7.31268 16.5 7.31268C16.7336 7.31268 16.962 7.38908 17.1564 7.53225C17.3508 7.67542 17.5025 7.87896 17.5925 8.11725L19.3203 12.6585L23.7319 13.081C23.9649 13.1026 24.187 13.1998 24.3702 13.3604C24.5534 13.5209 24.6897 13.7377 24.7619 13.9836C24.8341 14.2294 24.8391 14.4933 24.7761 14.7422C24.7131 14.9911 24.5851 15.214 24.408 15.3828H24.4043Z" fill="#FFCD37"/>
<path d="M28.8629 20.6989V18.5192L34.3281 9.90909H36.2074V12.9261H35.0952L31.6499 18.3786V18.4808H39.4162V20.6989H28.8629ZM35.1463 23V20.0341L35.1974 19.0689V9.90909H37.7926V23H35.1463ZM42.7814 23.1662C42.3595 23.1662 41.9973 23.017 41.6947 22.7188C41.3964 22.4162 41.2473 22.054 41.2473 21.6321C41.2473 21.2145 41.3964 20.8565 41.6947 20.5582C41.9973 20.2599 42.3595 20.1108 42.7814 20.1108C43.1905 20.1108 43.5484 20.2599 43.8553 20.5582C44.1621 20.8565 44.3155 21.2145 44.3155 21.6321C44.3155 21.9134 44.243 22.1712 44.0982 22.4055C43.9575 22.6357 43.7722 22.821 43.542 22.9616C43.3119 23.098 43.0584 23.1662 42.7814 23.1662ZM46.6755 23V21.0057L51.3353 16.6911C51.7316 16.3075 52.064 15.9624 52.3325 15.6555C52.6052 15.3487 52.8119 15.0483 52.9525 14.7543C53.0931 14.456 53.1635 14.1342 53.1635 13.7891C53.1635 13.4055 53.0761 13.0753 52.9014 12.7983C52.7267 12.517 52.488 12.3018 52.1855 12.1527C51.8829 11.9993 51.5399 11.9226 51.1564 11.9226C50.7558 11.9226 50.4064 12.0036 50.1081 12.1655C49.8098 12.3274 49.5797 12.5597 49.4177 12.8622C49.2558 13.1648 49.1748 13.5249 49.1748 13.9425H46.5477C46.5477 13.0859 46.7416 12.3423 47.1294 11.7116C47.5172 11.081 48.0605 10.593 48.7593 10.2479C49.4582 9.9027 50.2636 9.73011 51.1755 9.73011C52.113 9.73011 52.9291 9.89631 53.6237 10.2287C54.3225 10.5568 54.8659 11.0128 55.2537 11.5966C55.6414 12.1804 55.8353 12.8494 55.8353 13.6037C55.8353 14.098 55.7373 14.5859 55.5413 15.0675C55.3495 15.549 55.0065 16.0838 54.5122 16.6719C54.0179 17.2557 53.3211 17.9567 52.422 18.7749L50.5108 20.6477V20.7372H56.0079V23H46.6755Z" fill="black"/>
</svg>
